<svg version="1.1" id="Layer_1" xmlns="http://www.w3.org/2000/svg" xmlns:xlink="http://www.w3.org/1999/xlink" x="0px" y="0px"
	 width="100%" viewBox="0 0 500 500" enable-background="new 0 0 500 500" xml:space="preserve">
<path fill="#FFFFFF" opacity="1.000000" stroke="none" 
	d="
M1.000001,98.000000 
	C1.000000,65.686966 1.000000,33.373932 1.000004,1.061669 
	C167.666672,1.062440 334.333344,1.062440 501.000000,1.062440 
	C501.000000,34.104149 501.000000,67.083412 500.640137,100.368492 
	C497.141205,77.996002 479.317596,58.890396 456.730774,56.068615 
	C443.589325,54.426849 430.138092,55.212677 416.824615,55.015705 
	C405.676697,54.850780 406.212067,54.038689 406.077454,65.964905 
	C406.023102,70.780968 407.848816,72.371735 412.595398,72.254791 
	C423.422119,71.988037 434.260010,72.143501 445.093170,72.176331 
	C468.558533,72.247429 483.907196,87.546410 483.950348,110.937866 
	C483.986328,130.437729 483.962891,149.937683 483.947876,169.437592 
	C483.946777,170.876373 483.801178,172.315048 483.728363,173.651611 
	C328.322296,173.651611 173.264282,173.651611 18.044241,173.651611 
	C18.044241,151.818375 18.017847,130.330612 18.052210,108.842949 
	C18.082184,90.098083 30.866701,74.900070 49.416054,72.911224 
	C60.134300,71.762024 71.039185,72.293755 81.861229,72.188850 
	C93.090446,72.080002 92.900810,73.803581 92.882172,60.485424 
	C92.876503,56.437012 91.222977,54.875732 87.146812,54.939175 
	C76.149513,55.110336 65.147003,54.912811 54.148018,55.016285 
	C29.875061,55.244625 9.602241,70.815010 2.863841,94.221390 
	C2.481439,95.549698 1.632048,96.743561 1.000001,98.000000 
M277.499969,72.166458 
	C299.644135,72.166451 321.788300,72.168098 343.932465,72.165794 
	C355.952148,72.164551 354.878510,73.359230 355.070404,60.688232 
	C355.137726,56.242989 353.323669,54.940948 349.117706,54.945892 
	C282.685303,55.023972 216.252747,55.024754 149.820343,54.944786 
	C145.554520,54.939651 143.545151,56.378338 143.974014,60.755894 
	C144.103256,62.075218 143.992783,63.417896 143.994339,64.749878 
	C144.002975,72.158775 144.003220,72.164909 151.626831,72.165314 
	C193.251205,72.167496 234.875565,72.166420 277.499969,72.166458 
M104.787964,105.411499 
	C109.326653,112.715752 115.193184,115.208145 122.862984,113.090683 
	C129.558319,111.242241 133.756271,105.337730 133.797012,97.085274 
	C133.893036,77.626457 133.997208,58.164104 133.678665,38.710045 
	C133.619720,35.109959 132.239029,31.144005 130.330215,28.048819 
	C127.141731,22.878622 120.200859,20.893555 114.494827,22.538473 
	C107.863968,24.450001 103.159187,29.766764 103.099785,36.595398 
	C102.917526,57.549282 103.011452,78.505974 103.103210,99.461113 
	C103.110947,101.229797 103.903633,102.995056 104.787964,105.411499 
M384.448547,109.040466 
	C392.258026,106.332367 395.964630,101.292694 395.986359,92.983688 
	C396.036926,73.664948 396.030701,54.345924 395.991241,35.027126 
	C395.969849,24.552700 389.992981,17.973349 380.642853,17.970457 
	C371.291229,17.967566 365.224854,24.533604 365.188416,34.965279 
	C365.121490,54.117382 365.116272,73.270081 365.188965,92.422142 
	C365.233063,104.045586 372.068817,110.139359 384.448547,109.040466 
z"/>
<path fill="#251A17" opacity="1.000000" stroke="none" 
	d="
M1.000001,98.468658 
	C1.632048,96.743561 2.481439,95.549698 2.863841,94.221390 
	C9.602241,70.815010 29.875061,55.244625 54.148018,55.016285 
	C65.147003,54.912811 76.149513,55.110336 87.146812,54.939175 
	C91.222977,54.875732 92.876503,56.437012 92.882172,60.485424 
	C92.900810,73.803581 93.090446,72.080002 81.861229,72.188850 
	C71.039185,72.293755 60.134300,71.762024 49.416054,72.911224 
	C30.866701,74.900070 18.082184,90.098083 18.052210,108.842949 
	C18.017847,130.330612 18.044241,151.818375 18.044241,173.651611 
	C173.264282,173.651611 328.322296,173.651611 483.728363,173.651611 
	C483.801178,172.315048 483.946777,170.876373 483.947876,169.437592 
	C483.962891,149.937683 483.986328,130.437729 483.950348,110.937866 
	C483.907196,87.546410 468.558533,72.247429 445.093170,72.176331 
	C434.260010,72.143501 423.422119,71.988037 412.595398,72.254791 
	C407.848816,72.371735 406.023102,70.780968 406.077454,65.964905 
	C406.212067,54.038689 405.676697,54.850780 416.824615,55.015705 
	C430.138092,55.212677 443.589325,54.426849 456.730774,56.068615 
	C479.317596,58.890396 497.141205,77.996002 500.640137,100.837151 
	C501.000000,214.020889 501.000000,327.041779 500.642120,440.638214 
	C497.056671,448.439026 494.889832,456.419434 490.390686,462.739502 
	C479.515442,478.016235 464.034119,484.477722 445.170288,484.449249 
	C321.611572,484.262756 198.052460,484.354614 74.493462,484.350555 
	C67.000328,484.350311 59.503422,484.451874 52.014771,484.256744 
	C29.012974,483.657288 9.056355,467.908508 2.977297,445.770996 
	C2.524984,444.123901 1.668563,442.587738 1.000002,441.000000 
	C1.000000,326.979095 1.000000,212.958206 1.000001,98.468658 
M18.139006,354.500549 
	C18.115889,380.483368 17.865284,406.468597 18.143688,432.448181 
	C18.355509,452.214661 34.381828,467.475128 54.241566,467.483704 
	C97.715515,467.502441 141.189484,467.494720 184.663437,467.470062 
	C186.302872,467.469116 187.942154,467.178711 190.270309,467.093597 
	C191.744339,467.737701 193.162262,468.690491 194.702484,468.970459 
	C200.211197,469.971649 205.734558,471.048767 211.301544,471.540192 
	C222.648941,472.541901 234.021561,473.652924 245.396713,473.815582 
	C253.943054,473.937744 262.563263,473.042023 271.051788,471.878754 
	C279.340515,470.742889 287.503937,468.692963 296.637878,467.406494 
	C346.758911,467.434357 396.879944,467.472137 447.000977,467.485382 
	C468.156250,467.490997 483.848907,451.921448 483.932404,430.638367 
	C484.033661,404.828613 483.941376,379.018097 483.910461,352.403076 
	C483.931305,347.889038 483.952148,343.375000 483.905182,337.943176 
	C483.905182,289.026398 483.905182,240.109619 483.905182,191.367035 
	C328.262085,191.367035 173.214706,191.367035 17.992085,191.367035 
	C17.992085,240.552704 17.992085,289.373108 18.516367,338.697601 
	C18.652210,343.852142 18.788054,349.006683 18.139006,354.500549 
z"/>
<path fill="#FBFBFB" opacity="1.000000" stroke="none" 
	d="
M1.000002,441.468658 
	C1.668563,442.587738 2.524984,444.123901 2.977297,445.770996 
	C9.056355,467.908508 29.012974,483.657288 52.014771,484.256744 
	C59.503422,484.451874 67.000328,484.350311 74.493462,484.350555 
	C198.052460,484.354614 321.611572,484.262756 445.170288,484.449249 
	C464.034119,484.477722 479.515442,478.016235 490.390686,462.739502 
	C494.889832,456.419434 497.056671,448.439026 500.642120,441.106873 
	C501.000000,460.985870 501.000000,480.971771 501.000000,500.952759 
	C334.333313,500.947906 167.666656,500.947906 1.000000,500.947906 
	C1.000000,481.242981 1.000000,461.590149 1.000002,441.468658 
z"/>
<path fill="#231815" opacity="1.000000" stroke="none" 
	d="
M276.999939,72.166458 
	C234.875565,72.166420 193.251205,72.167496 151.626831,72.165314 
	C144.003220,72.164909 144.002975,72.158775 143.994339,64.749878 
	C143.992783,63.417896 144.103256,62.075218 143.974014,60.755894 
	C143.545151,56.378338 145.554520,54.939651 149.820343,54.944786 
	C216.252747,55.024754 282.685303,55.023972 349.117706,54.945892 
	C353.323669,54.940948 355.137726,56.242989 355.070404,60.688232 
	C354.878510,73.359230 355.952148,72.164551 343.932465,72.165794 
	C321.788300,72.168098 299.644135,72.166451 276.999939,72.166458 
z"/>
<path fill="#251A17" opacity="1.000000" stroke="none" 
	d="
M104.559807,105.086700 
	C103.903633,102.995056 103.110947,101.229797 103.103210,99.461113 
	C103.011452,78.505974 102.917526,57.549282 103.099785,36.595398 
	C103.159187,29.766764 107.863968,24.450001 114.494827,22.538473 
	C120.200859,20.893555 127.141731,22.878622 130.330215,28.048819 
	C132.239029,31.144005 133.619720,35.109959 133.678665,38.710045 
	C133.997208,58.164104 133.893036,77.626457 133.797012,97.085274 
	C133.756271,105.337730 129.558319,111.242241 122.862984,113.090683 
	C115.193184,115.208145 109.326653,112.715752 104.559807,105.086700 
z"/>
<path fill="#251B18" opacity="1.000000" stroke="none" 
	d="
M384.066223,109.091110 
	C372.068817,110.139359 365.233063,104.045586 365.188965,92.422142 
	C365.116272,73.270081 365.121490,54.117382 365.188416,34.965279 
	C365.224854,24.533604 371.291229,17.967566 380.642853,17.970457 
	C389.992981,17.973349 395.969849,24.552700 395.991241,35.027126 
	C396.030701,54.345924 396.036926,73.664948 395.986359,92.983688 
	C395.964630,101.292694 392.258026,106.332367 384.066223,109.091110 
z"/>
<path fill="#FEFEFE" opacity="1.000000" stroke="none" 
	d="
M17.992081,338.193512 
	C17.992085,289.373108 17.992085,240.552704 17.992085,191.367035 
	C173.214706,191.367035 328.262085,191.367035 483.905182,191.367035 
	C483.905182,240.109619 483.905182,289.026398 483.610718,338.306091 
	C482.778198,337.842194 482.386627,336.462494 481.679291,336.275146 
	C475.417480,334.616882 476.843384,329.843536 477.116272,325.510986 
	C477.221008,323.848053 477.334106,322.185638 477.436218,320.522552 
	C478.175446,308.480347 477.708405,296.546417 473.957306,284.953796 
	C472.075867,279.139160 468.879486,273.863251 462.485901,273.029816 
	C456.665649,272.271149 454.731628,268.944702 452.826355,264.258881 
	C449.611847,256.353149 444.161346,250.657532 434.874939,250.953857 
	C431.672974,251.056015 430.173553,249.868073 428.633148,247.412048 
	C424.585693,240.958771 419.196472,236.196396 411.224518,235.381317 
	C401.690857,234.406601 394.688110,239.556442 388.192139,245.435333 
	C378.778259,253.954880 372.226715,264.635651 367.083221,276.052826 
	C362.134033,287.038757 358.031586,298.406189 353.439178,309.901184 
	C350.031403,309.248169 346.358490,308.544373 342.677917,307.839081 
	C343.440979,297.540253 339.171509,290.476013 331.285034,284.946472 
	C328.952393,283.310974 327.339661,280.285950 326.061371,277.583466 
	C323.238373,271.615356 321.510437,265.039215 318.118683,259.449677 
	C311.882385,249.172409 300.223877,245.562912 288.989105,249.747742 
	C286.011230,250.856979 283.826996,250.581436 281.211212,248.830109 
	C270.233093,241.479980 256.584381,241.071381 246.581497,249.991425 
	C245.793976,250.693710 244.067139,251.212402 243.208862,250.834702 
	C231.032654,245.476318 220.930450,248.588867 212.173294,258.221313 
	C203.437790,253.853806 195.660980,256.158325 188.820618,262.320404 
	C184.062912,266.606293 182.001785,272.415222 180.999893,278.656647 
	C179.787170,286.211548 178.577789,293.773651 177.025360,301.261841 
	C176.704300,302.810333 175.079147,304.991425 173.720200,305.274689 
	C165.150940,307.061096 156.487213,308.394348 149.174850,309.650513 
	C142.273331,294.357727 136.201828,279.457428 128.896927,265.188568 
	C123.343590,254.341110 115.759010,244.763504 104.641663,238.653229 
	C93.464165,232.509903 82.289635,234.885651 74.753235,245.229584 
	C73.774818,246.572495 72.997787,248.080917 71.903084,249.313339 
	C71.230034,250.071060 70.108925,250.959366 69.225807,250.921890 
	C57.728359,250.433945 51.662098,256.941467 47.612728,266.768005 
	C46.689972,269.007202 43.978302,271.599060 41.726368,272.003448 
	C33.906719,273.407471 29.776188,278.111816 27.911552,285.280701 
	C26.702675,289.928436 25.219864,294.655701 25.044140,299.391266 
	C24.625399,310.675903 24.909153,321.986572 24.909153,332.918762 
	C22.514851,334.744568 20.253464,336.469025 17.992081,338.193512 
z"/>
<path fill="#050505" opacity="1.000000" stroke="none" 
	d="
M18.254223,338.445557 
	C20.253464,336.469025 22.514851,334.744568 24.909153,332.918762 
	C24.909153,321.986572 24.625399,310.675903 25.044140,299.391266 
	C25.219864,294.655701 26.702675,289.928436 27.911552,285.280701 
	C29.776188,278.111816 33.906719,273.407471 41.726368,272.003448 
	C43.978302,271.599060 46.689972,269.007202 47.612728,266.768005 
	C51.662098,256.941467 57.728359,250.433945 69.225807,250.921890 
	C70.108925,250.959366 71.230034,250.071060 71.903084,249.313339 
	C72.997787,248.080917 73.774818,246.572495 74.753235,245.229584 
	C82.289635,234.885651 93.464165,232.509903 104.641663,238.653229 
	C115.759010,244.763504 123.343590,254.341110 128.896927,265.188568 
	C136.201828,279.457428 142.273331,294.357727 149.174850,309.650513 
	C156.487213,308.394348 165.150940,307.061096 173.720200,305.274689 
	C175.079147,304.991425 176.704300,302.810333 177.025360,301.261841 
	C178.577789,293.773651 179.787170,286.211548 180.999893,278.656647 
	C182.001785,272.415222 184.062912,266.606293 188.820618,262.320404 
	C195.660980,256.158325 203.437790,253.853806 212.173294,258.221313 
	C220.930450,248.588867 231.032654,245.476318 243.208862,250.834702 
	C244.067139,251.212402 245.793976,250.693710 246.581497,249.991425 
	C256.584381,241.071381 270.233093,241.479980 281.211212,248.830109 
	C283.826996,250.581436 286.011230,250.856979 288.989105,249.747742 
	C300.223877,245.562912 311.882385,249.172409 318.118683,259.449677 
	C321.510437,265.039215 323.238373,271.615356 326.061371,277.583466 
	C327.339661,280.285950 328.952393,283.310974 331.285034,284.946472 
	C339.171509,290.476013 343.440979,297.540253 342.677917,307.839081 
	C346.358490,308.544373 350.031403,309.248169 353.439178,309.901184 
	C358.031586,298.406189 362.134033,287.038757 367.083221,276.052826 
	C372.226715,264.635651 378.778259,253.954880 388.192139,245.435333 
	C394.688110,239.556442 401.690857,234.406601 411.224518,235.381317 
	C419.196472,236.196396 424.585693,240.958771 428.633148,247.412048 
	C430.173553,249.868073 431.672974,251.056015 434.874939,250.953857 
	C444.161346,250.657532 449.611847,256.353149 452.826355,264.258881 
	C454.731628,268.944702 456.665649,272.271149 462.485901,273.029816 
	C468.879486,273.863251 472.075867,279.139160 473.957306,284.953796 
	C477.708405,296.546417 478.175446,308.480347 477.436218,320.522552 
	C477.334106,322.185638 477.221008,323.848053 477.116272,325.510986 
	C476.843384,329.843536 475.417480,334.616882 481.679291,336.275146 
	C482.386627,336.462494 482.778198,337.842194 483.644592,338.764954 
	C483.952148,343.375000 483.931305,347.889038 483.575500,352.916229 
	C482.412018,356.124207 481.706085,358.864410 480.729370,361.504395 
	C478.724640,366.923096 476.298737,371.923950 469.134308,369.905457 
	C465.893982,378.118164 463.048157,385.912292 459.760498,393.515381 
	C455.704315,402.895752 450.565094,411.595978 442.314331,418.053986 
	C438.703217,420.880463 434.423676,422.878326 430.297058,420.898132 
	C425.639435,418.663116 422.989685,420.684021 420.000885,423.381348 
	C418.768341,424.493713 417.408813,425.466278 416.098694,426.491730 
	C409.458679,431.688690 402.497162,432.460388 395.418365,427.576141 
	C392.845001,425.800568 390.875000,426.116669 388.222717,427.448456 
	C376.078278,433.546478 365.706390,430.786011 357.711060,419.675140 
	C350.072449,409.059967 346.505066,396.925293 346.130432,384.150574 
	C345.703369,369.587982 346.524261,354.988800 346.809174,340.070557 
	C346.436005,339.980011 345.336426,339.652802 344.213867,339.457855 
	C343.111633,339.266388 341.985992,339.209290 340.481506,339.052734 
	C338.596283,355.265625 330.747620,368.107422 318.938660,378.597290 
	C313.103790,383.780426 306.920654,388.601807 300.636627,393.236450 
	C297.405396,395.619568 295.745758,398.108521 295.843811,402.303802 
	C296.295258,421.617371 296.499329,440.937195 296.683990,460.255798 
	C296.705566,462.515350 296.059113,464.781311 295.722382,467.044312 
	C287.503937,468.692963 279.340515,470.742889 271.051788,471.878754 
	C262.563263,473.042023 253.943054,473.937744 245.396713,473.815582 
	C234.021561,473.652924 222.648941,472.541901 211.301544,471.540192 
	C205.734558,471.048767 200.211197,469.971649 194.702484,468.970459 
	C193.162262,468.690491 191.744339,467.737701 189.883469,466.588318 
	C189.382141,464.094025 189.176575,462.105438 189.167252,460.115936 
	C189.071121,439.619415 189.091431,419.121704 188.835770,398.627380 
	C188.800293,395.783081 187.693298,392.861298 186.656830,390.137268 
	C183.483551,381.797363 179.220688,373.760193 177.044312,365.183350 
	C174.741684,356.109009 174.348145,346.550201 173.083710,336.921234 
	C166.849594,337.977814 160.410126,339.069214 154.384232,340.090515 
	C155.055252,349.763000 156.023849,358.719513 156.222443,367.693085 
	C156.570480,383.419464 155.606705,399.032288 148.290924,413.446045 
	C139.977081,429.826202 129.205551,433.794037 112.203293,427.093292 
	C110.944633,426.597229 108.872528,426.550018 107.874138,427.265167 
	C100.156265,432.793610 92.761299,431.140045 85.602318,426.423187 
	C82.312042,424.255341 79.424957,421.475555 76.401474,419.011078 
	C68.473434,423.000427 65.175323,422.671356 58.680565,416.966095 
	C56.439308,414.997314 54.349934,412.808594 52.449364,410.507111 
	C43.708473,399.922729 39.140404,387.222382 34.550613,374.562866 
	C33.536224,371.764984 32.679970,369.747406 28.909258,369.839264 
	C27.128544,369.882660 24.560595,367.891479 23.625885,366.140656 
	C21.619293,362.382019 20.441193,358.181091 18.923899,354.161224 
	C18.788054,349.006683 18.652210,343.852142 18.254223,338.445557 
M298.533020,266.439209 
	C302.386230,269.152283 306.239441,271.865356 310.185089,274.643494 
	C310.185089,272.399719 310.185089,270.049866 310.185089,266.496582 
	C311.585144,269.941345 312.344177,272.440918 313.583496,274.674011 
	C314.740875,276.759583 316.408112,278.562225 317.850983,280.489380 
	C319.271393,268.055359 311.606567,257.414185 301.396362,254.963409 
	C296.653778,253.825027 292.296844,253.945068 288.455627,257.617371 
	C289.379852,257.840790 290.141052,258.024780 290.545135,258.122467 
	C289.550690,260.511780 288.568390,262.871918 287.830444,264.644958 
	C291.763977,265.531494 294.862579,266.229858 297.252960,267.062347 
	C289.916107,277.027466 290.366638,279.695953 300.451080,285.935883 
	C301.434723,286.544525 302.386536,287.455383 303.450043,287.627533 
	C305.197052,287.910370 307.835968,288.429016 308.632416,287.537811 
	C309.937897,286.076965 310.967224,283.316772 310.479919,281.556732 
	C309.775543,279.012604 307.853333,276.656036 306.014313,274.612122 
	C303.490631,271.807251 300.558441,269.370026 298.533020,266.439209 
M230.123352,316.218994 
	C234.364578,314.021271 238.738403,312.073212 243.049942,315.751160 
	C246.541534,318.729706 247.365387,325.570099 245.235107,330.296295 
	C244.434235,325.348969 244.696045,319.554169 239.167450,317.173431 
	C237.004684,316.242065 233.841522,317.633820 231.230759,317.955566 
	C232.342514,322.650177 233.441376,326.104767 233.876968,329.641022 
	C234.087769,331.352417 233.627274,333.927704 232.464935,334.866333 
	C229.950760,336.896515 231.179565,338.842377 232.849594,338.920837 
	C236.967682,339.114380 241.361755,338.986847 245.214432,337.699860 
	C248.998978,336.435577 249.996368,332.552246 249.737015,328.561249 
	C248.377823,307.645966 247.153732,286.721161 245.617325,265.819153 
	C245.427887,263.242218 244.293411,260.121460 242.499924,258.387024 
	C236.347717,252.437363 225.119797,253.768417 219.219803,260.966522 
	C219.248016,261.208557 219.276245,261.450623 219.304443,261.692657 
	C219.606552,261.532410 219.908661,261.372131 220.974594,261.146729 
	C222.802368,260.725494 224.630142,260.304230 226.457901,259.882996 
	C226.531143,260.172272 226.604385,260.461548 226.677628,260.750824 
	C224.390594,261.839203 222.103561,262.927551 219.816528,264.015930 
	C219.950699,264.378082 220.084869,264.740265 220.219040,265.102417 
	C222.276581,265.268616 224.334122,265.434784 227.459335,265.687225 
	C224.399231,267.186066 222.383942,268.173157 220.735672,268.980469 
	C221.581772,270.416809 222.712570,271.550201 222.938110,272.841644 
	C225.064926,285.020721 227.034485,297.227234 229.065384,309.423187 
	C229.142395,309.885773 229.382004,310.321259 229.536530,310.743988 
	C230.832108,310.910797 232.040985,311.066498 233.136536,311.207550 
	C231.613785,312.807343 230.196930,314.295868 228.257568,316.043365 
	C228.669632,316.239502 229.081711,316.435669 230.123352,316.218994 
M252.755951,254.892181 
	C254.610870,254.076233 256.465790,253.260284 258.320679,252.444351 
	C258.457123,252.708069 258.593567,252.971802 258.730011,253.235519 
	C257.843201,254.401398 256.956390,255.567276 255.660431,257.271057 
	C258.338409,257.271057 260.286133,257.271057 262.233856,257.271057 
	C256.971741,258.853180 256.046021,262.762390 256.069366,267.430542 
	C256.132568,280.078491 256.224365,292.729584 255.995590,305.373840 
	C255.920258,309.538849 256.569275,312.422150 262.239441,312.071533 
	C259.892181,313.303894 258.332306,314.122833 256.772430,314.941803 
	C258.033264,315.759552 258.991425,315.910980 259.886078,315.736511 
	C270.846771,313.599396 272.820404,315.117462 273.278259,326.226868 
	C273.353424,328.050293 273.364471,329.899597 273.138947,331.703674 
	C272.997925,332.831909 272.358551,333.897858 271.942780,334.991760 
	C271.000092,331.118988 271.281219,327.455811 270.890717,323.865692 
	C270.669769,321.834442 269.511566,318.344818 268.489136,318.237366 
	C264.540497,317.822449 260.476624,318.504395 256.455688,318.777618 
	C256.479431,319.133392 256.503204,319.489166 256.526947,319.844971 
	C257.624756,319.981598 258.722534,320.118256 259.841003,320.257507 
	C260.170471,325.212433 260.489166,330.005249 260.832214,335.164490 
	C259.344879,335.164490 257.998322,335.164490 255.649094,335.164490 
	C257.298706,336.554108 258.178772,337.295471 259.131348,338.097931 
	C258.202881,338.711273 257.563660,339.133545 255.556137,340.459747 
	C259.631195,341.176117 262.326233,342.188934 264.939362,342.009460 
	C273.174408,341.443909 278.172638,333.569397 277.121033,324.185974 
	C276.392761,317.687195 276.158325,311.115906 276.051453,304.571320 
	C275.992188,300.939545 276.523560,297.279633 277.004547,293.661041 
	C278.465668,282.668304 280.055328,271.692627 281.523712,260.700806 
	C281.684906,259.494080 281.803741,257.973694 281.233063,257.025665 
	C276.379700,248.963318 257.958618,247.383560 250.944778,254.734406 
	C250.744858,255.059692 250.544922,255.384964 250.345016,255.710251 
	C250.910934,255.489349 251.476837,255.268433 252.755951,254.892181 
M308.905518,339.216919 
	C305.760223,335.845428 302.614899,332.473907 299.296936,328.917358 
	C299.562408,331.917023 299.818909,334.815460 300.075409,337.713928 
	C299.764160,337.793884 299.452881,337.873871 299.141632,337.953827 
	C298.345459,335.392120 297.549316,332.830414 296.544830,329.598358 
	C295.674652,331.878662 295.099396,333.386169 294.563416,334.790771 
	C293.473541,334.083984 292.440704,332.834808 291.453888,332.870178 
	C285.874420,333.069946 280.361298,332.071960 276.328156,338.466919 
	C270.999664,346.915680 263.192017,351.043243 252.864685,345.965729 
	C251.910202,345.496429 249.558319,346.335968 248.781326,347.308014 
	C245.641449,351.236145 242.864365,355.454254 239.953354,359.565277 
	C239.708374,359.504059 239.463409,359.442841 239.218430,359.381622 
	C241.118515,354.291718 243.018585,349.201843 245.012909,343.859467 
	C236.504837,344.533112 228.234024,344.517761 222.173538,337.006836 
	C221.639709,336.345276 219.394653,336.631561 218.142105,337.058136 
	C212.832199,338.866486 207.586029,340.865143 202.336563,342.847168 
	C188.712173,347.991241 188.595718,348.058777 194.753876,361.233093 
	C201.722305,376.140808 212.658066,386.195526 229.600494,388.274750 
	C234.388107,388.862305 239.239532,388.929779 244.234619,389.246765 
	C243.425171,386.413605 242.594086,383.504730 241.763016,380.595886 
	C247.374069,385.788513 253.641220,388.023254 260.999634,388.038177 
	C279.908875,388.076538 296.016846,380.452820 311.184998,370.128418 
	C322.274445,362.580292 330.967865,352.854065 333.207031,339.421661 
	C335.191437,327.517883 335.768402,315.297638 335.856171,303.209015 
	C335.882782,299.542664 332.722351,295.421204 330.089844,292.292114 
	C327.588318,289.318726 323.959259,287.234711 320.651520,285.020233 
	C318.543274,283.608826 316.117279,282.672058 313.659943,281.434998 
	C312.996155,283.917938 312.619965,285.688263 312.047302,287.392548 
	C310.798737,291.108215 308.164398,292.625610 304.312500,291.923523 
	C291.507782,289.589417 287.228027,280.918213 293.242920,269.544098 
	C293.464478,269.125183 293.613037,268.667694 293.831726,268.141357 
	C290.284210,266.972382 287.918518,268.654083 287.307861,271.663239 
	C286.571716,275.290466 286.078217,279.281433 286.824829,282.832092 
	C288.586487,291.209686 293.281311,298.014435 300.176910,303.180664 
	C307.114960,308.378723 314.643219,311.560699 323.874329,310.299011 
	C321.746765,311.367950 319.619202,312.436890 317.314423,313.594910 
	C318.198395,313.878082 319.005707,314.136719 320.900238,314.743622 
	C318.379883,315.324158 316.838623,316.080658 315.388306,315.934509 
	C311.708466,315.563721 310.404205,317.509338 308.819183,320.503632 
	C305.320496,327.113037 305.716553,333.069427 309.795349,339.190399 
	C309.795349,339.190399 309.557617,339.414459 308.905518,339.216919 
M409.513550,346.967285 
	C405.597107,363.247620 400.288025,379.052399 392.080872,393.684570 
	C385.499329,405.418518 378.614685,417.172394 362.583313,419.152618 
	C364.746155,421.568695 366.938416,424.344574 369.733063,425.239807 
	C378.065796,427.909119 385.536194,424.555420 392.568207,420.348419 
	C393.412048,421.085297 394.042847,421.615723 394.651337,422.170654 
	C401.509216,428.424866 406.051819,428.701477 413.541473,423.053772 
	C417.482330,420.082123 421.235016,416.860870 425.062378,413.760712 
	C432.371490,419.272095 436.379730,419.320526 442.603668,412.516388 
	C446.929169,407.787720 450.885620,402.459991 453.847351,396.793793 
	C463.272278,378.762634 468.923187,359.373474 471.744446,339.307831 
	C474.083466,322.671906 475.313385,305.903625 471.021393,289.256744 
	C468.311768,278.747131 465.475708,276.302124 454.531006,275.958038 
	C454.072998,275.943665 453.621704,275.715485 453.448639,275.666504 
	C451.772827,271.616272 450.452606,267.665588 448.556366,264.014008 
	C445.425751,257.985504 440.725342,253.966873 433.411438,255.079285 
	C429.638397,255.653137 427.809601,254.211578 426.212158,250.968399 
	C424.922455,248.349899 422.965668,245.882385 420.796265,243.906128 
	C412.309875,236.175140 399.662994,238.349594 390.979797,248.819687 
	C402.886261,246.930588 407.524261,249.179092 411.368256,261.088837 
	C413.883850,268.882782 415.292847,277.227112 415.862762,285.417786 
	C417.291840,305.956726 414.241333,326.169830 409.513550,346.967285 
M107.336113,245.420975 
	C93.259682,234.749222 84.830933,237.255707 72.546059,255.766647 
	C63.010872,253.232834 57.637920,255.650391 53.173794,264.593048 
	C51.995049,266.954315 50.796272,269.353699 50.040798,271.866089 
	C49.091145,275.024231 47.519966,276.297028 44.016434,276.108093 
	C38.478321,275.809387 34.310581,278.574432 32.636612,283.899200 
	C31.057920,288.920898 29.721285,294.107788 29.085394,299.320465 
	C26.991489,316.485107 28.614992,333.549500 32.105713,350.358826 
	C36.575039,371.880646 43.474728,392.513092 57.115471,410.278748 
	C63.283531,418.311981 68.570236,419.311127 76.902374,413.664276 
	C79.259499,415.908234 81.591904,418.264404 84.066475,420.460388 
	C93.706078,429.014648 99.003983,429.069946 108.821991,420.841125 
	C109.039986,420.658417 109.404442,420.650482 109.704170,420.572876 
	C123.466255,428.942535 135.447540,427.934448 138.777008,417.806152 
	C131.185028,419.183716 125.575142,415.556335 121.412460,410.097046 
	C116.214096,403.279510 110.792786,396.339478 107.194977,388.644714 
	C91.791107,355.700226 84.343369,320.934875 86.128082,284.496185 
	C86.503876,276.823547 87.905121,268.947784 90.393738,261.701324 
	C93.014198,254.070984 96.792488,246.170151 107.584129,248.026779 
	C107.701447,247.325943 107.818764,246.625107 107.336113,245.420975 
M249.060715,403.748932 
	C249.060715,413.033844 249.060715,422.318756 249.060715,431.603668 
	C247.682434,423.693024 247.208954,415.762146 246.959488,407.824249 
	C246.843552,404.135010 245.626862,402.123077 241.572540,402.761230 
	C240.310028,402.959961 238.989838,402.792206 236.564621,402.792206 
	C236.564621,416.476257 236.564621,429.895844 236.564621,443.315399 
	C236.111893,443.320618 235.659164,443.325867 235.206421,443.331085 
	C233.790146,430.814209 232.195602,418.313843 231.033066,405.773468 
	C230.455200,399.539948 225.844925,401.395325 222.454208,400.896942 
	C218.306290,400.287231 219.034866,403.507202 219.021423,405.882782 
	C218.920456,423.712921 218.857925,441.543335 218.809998,459.373718 
	C218.806137,460.807068 219.001495,462.240906 219.131744,464.057526 
	C229.959305,464.485931 240.424927,465.371704 250.870850,465.180695 
	C261.305023,464.989868 271.737610,463.902008 282.136261,462.861450 
	C289.081360,462.166504 289.642242,461.243164 289.643005,454.405609 
	C289.644897,436.908295 289.642303,419.410950 289.613617,401.913666 
	C289.611023,400.327454 289.407684,398.741577 289.304352,397.252838 
	C282.463409,398.817780 276.121216,400.690125 269.643738,401.632660 
	C263.076416,402.588287 256.375488,402.625244 249.060715,403.748932 
M198.912704,326.328827 
	C178.022614,329.912811 157.076202,333.209167 136.281631,337.280975 
	C131.017166,338.311859 129.380524,336.384491 128.101776,332.352753 
	C127.774849,331.321991 127.520180,330.268280 127.297569,329.461578 
	C152.937119,325.074158 178.330322,320.728912 203.798996,316.370758 
	C201.109070,313.934967 198.292480,311.120331 195.171936,308.697113 
	C194.025589,307.806885 192.074310,307.305969 190.636169,307.536835 
	C171.993729,310.529724 153.342743,313.494995 134.767761,316.873199 
	C123.387764,318.942841 121.960976,321.879700 125.574638,333.123291 
	C125.927139,334.220062 126.496788,335.245544 126.879173,336.334503 
	C128.188721,340.063812 130.355606,341.195129 134.533569,340.402344 
	C152.585419,336.976959 170.691864,333.818787 188.827606,330.865234 
	C197.433441,329.463684 206.149628,328.739624 214.815811,327.708618 
	C214.886612,327.156281 214.957428,326.603973 215.028229,326.051666 
	C213.426010,325.742310 211.810165,325.119019 210.224365,325.187805 
	C206.743378,325.338837 203.277603,325.840149 198.912704,326.328827 
M343.948914,323.671356 
	C354.045441,325.757080 364.141998,327.842834 374.263428,329.933716 
	C373.124969,337.212341 371.836639,338.258331 364.363464,336.895538 
	C358.517487,335.829468 352.736603,334.406464 346.890930,333.338470 
	C345.023376,332.997253 343.040924,333.285034 341.111023,333.285034 
	C341.087708,333.699280 341.064392,334.113495 341.041077,334.527740 
	C350.617401,336.582458 360.173584,338.743958 369.795319,340.557739 
	C371.006622,340.786102 373.479980,339.460022 373.803131,338.384033 
	C375.337708,333.274200 376.605896,328.038757 377.318451,322.760223 
	C377.493591,321.462891 375.456177,318.847260 374.044220,318.518158 
	C363.661530,316.098175 353.179352,314.105011 341.664001,311.760620 
	C342.298462,316.097992 342.811646,319.606079 343.948914,323.671356 
M201.199524,283.260895 
	C202.299957,285.103851 203.166214,287.154205 204.564728,288.733154 
	C206.051163,290.411407 207.890442,291.919281 209.853058,292.995789 
	C212.067627,294.210480 214.591324,294.861511 217.215424,295.845795 
	C216.890488,293.975708 216.575302,291.434204 215.993866,288.955200 
	C214.415314,282.225159 213.125580,275.389221 210.969009,268.843140 
	C208.619476,261.711365 203.805359,260.029205 197.451645,264.017090 
	C194.180374,266.070282 191.647110,269.299316 188.780380,271.997040 
	C189.012329,272.267365 189.244278,272.537659 189.476227,272.807983 
	C192.682648,271.008179 195.889053,269.208405 199.095474,267.408630 
	C199.342178,267.865570 199.588867,268.322479 199.835571,268.779419 
	C198.810364,269.690735 197.785156,270.602051 196.503128,271.741638 
	C197.814636,271.989899 198.699539,272.157410 199.745590,272.355408 
	C196.939407,276.272583 199.134430,279.390045 201.199524,283.260895 
M358.170898,348.959229 
	C359.397461,342.476776 359.397461,342.476776 354.843536,341.982697 
	C352.763550,357.800873 350.670715,373.647278 353.669250,389.533630 
	C354.755249,395.287231 356.862335,400.962952 359.303467,406.308899 
	C361.185059,410.429474 365.307831,412.525421 369.759674,410.701202 
	C378.453918,407.138519 382.506042,399.447968 385.777313,391.288940 
	C382.124084,395.277985 379.159180,399.850525 375.544922,403.833923 
	C368.889771,411.168976 363.225281,409.906494 359.823883,400.632080 
	C356.269470,390.940430 355.724823,380.896301 356.486938,370.715973 
	C357.007690,363.759796 357.542999,356.804749 358.170898,348.959229 
M149.575562,367.823120 
	C148.857834,359.111542 148.140106,350.399963 147.390167,341.297546 
	C145.404877,341.852234 144.228302,342.180939 143.243393,342.456116 
	C144.023834,351.686951 145.025024,360.593109 145.470078,369.526917 
	C146.041290,380.993256 145.617462,392.431702 140.869095,403.178955 
	C138.260605,409.082855 134.316574,410.187042 129.531616,406.221344 
	C126.363670,403.595764 123.741623,400.317230 120.816925,397.389221 
	C119.850266,396.421448 118.701614,395.635468 117.636169,394.766388 
	C118.965836,398.221375 120.841515,400.956238 122.930984,403.516663 
	C126.315453,407.663971 129.859100,412.066010 135.989029,411.037476 
	C142.389587,409.963501 144.810852,404.255432 145.820007,399.153168 
	C147.796173,389.161469 148.440872,378.906403 149.575562,367.823120 
M139.873856,308.397400 
	C134.414154,295.492523 129.412781,282.363586 123.268661,269.793243 
	C120.819031,264.781525 116.328941,260.407166 111.900452,256.810547 
	C105.905533,251.941803 100.130226,253.555038 96.990753,260.597565 
	C95.072800,264.899963 94.186653,269.679962 93.019974,274.291718 
	C92.481659,276.419617 92.381210,278.658264 92.082230,280.846710 
	C92.533249,280.910126 92.984276,280.973541 93.435295,281.036957 
	C93.636810,280.355499 93.845940,279.676208 94.038635,278.992279 
	C95.597275,273.460022 96.570938,267.671509 98.858116,262.459290 
	C101.653244,256.089478 106.256851,255.308060 110.881897,260.353638 
	C115.331657,265.207977 119.876831,270.397186 122.674088,276.254089 
	C128.129181,287.675934 132.393005,299.666718 137.278961,311.740234 
	C139.884399,311.836884 139.884399,311.836884 139.873856,308.397400 
M363.967377,302.430603 
	C363.150208,305.397278 362.333008,308.363983 361.515839,311.330658 
	C362.022736,311.712891 362.529663,312.095123 363.036591,312.477356 
	C364.086060,311.497528 365.645966,310.709351 366.098083,309.505249 
	C368.239044,303.803284 369.936340,297.935394 372.053650,292.223694 
	C376.210480,281.009827 380.846954,269.982025 389.489105,261.345032 
	C396.028534,254.809616 400.637054,255.818802 403.905518,264.362793 
	C405.690674,269.029419 406.948212,273.897919 408.443695,278.675354 
	C409.500793,270.901001 407.826965,263.806000 403.143188,257.686554 
	C399.696899,253.183929 395.248718,252.353317 391.082275,256.274902 
	C385.830017,261.218445 380.473480,266.555511 376.984802,272.749512 
	C371.830566,281.900543 368.282196,291.956116 363.967377,302.430603 
M375.655731,358.348450 
	C388.306213,344.492554 389.200195,327.721649 387.505707,310.332275 
	C387.413940,309.390839 387.018372,308.238342 386.353607,307.641357 
	C384.755310,306.206116 383.000366,304.225372 381.141388,304.026215 
	C379.631378,303.864502 377.878357,305.971954 376.233124,307.073059 
	C376.453674,307.403992 376.674255,307.734924 376.894836,308.065857 
	C378.431061,307.654114 379.967285,307.242340 381.472290,306.838959 
	C386.959839,317.712555 379.802460,350.633606 370.682312,356.217194 
	C370.064453,355.528076 369.405853,354.819672 368.777435,354.085388 
	C368.121735,353.319275 367.495209,352.528168 366.518280,351.335938 
	C366.937073,359.438904 369.080078,361.149902 375.655731,358.348450 
M113.593719,318.997009 
	C112.929466,332.332336 115.756134,344.764404 124.020264,355.439270 
	C125.701118,357.610474 129.607025,360.069641 131.588593,359.462646 
	C133.810043,358.782135 135.010941,354.770050 136.655899,352.207550 
	C136.197845,351.918945 135.739807,351.630341 135.281769,351.341736 
	C133.931732,353.233643 132.581696,355.125549 130.420090,358.154785 
	C128.015442,353.701263 125.754166,350.308746 124.266068,346.605560 
	C120.082825,336.195374 118.257271,325.249512 118.115700,314.069336 
	C118.031425,307.413971 119.152351,306.233734 123.944664,306.337952 
	C120.750313,302.431946 117.155579,302.757233 115.693138,307.409943 
	C114.612946,310.846558 114.389717,314.552551 113.593719,318.997009 
M295.088379,321.544037 
	C296.375793,318.714966 298.110870,315.981201 298.742859,313.012604 
	C299.017578,311.722107 297.088654,309.902679 296.018127,308.426849 
	C295.743561,308.048309 294.927948,308.062225 294.368073,307.897949 
	C294.027130,309.398193 293.744507,310.641815 293.290955,312.637543 
	C290.087097,303.364258 288.731476,302.582642 282.954437,305.456909 
	C286.766449,312.044861 282.000458,319.061401 283.793549,325.620880 
	C288.328339,326.972656 291.638336,325.038330 295.088379,321.544037 
M219.897110,305.742279 
	C219.402969,304.451721 218.908844,303.161194 218.047470,300.911530 
	C217.249313,302.798920 216.864090,303.709869 216.690735,304.119781 
	C213.891861,302.231750 216.316391,295.927979 209.421295,295.910706 
	C210.970078,300.939972 212.325455,305.341187 213.974396,310.695648 
	C210.443069,309.499420 207.296906,309.096405 205.020187,307.473572 
	C202.802246,305.892609 201.473907,303.063629 199.754990,300.782593 
	C199.043030,301.499634 198.331085,302.216675 197.619125,302.933685 
	C200.586060,305.996094 203.159256,309.634888 206.608597,311.991058 
	C212.343155,315.908264 219.270355,312.795502 219.897110,305.742279 
M26.137207,358.007446 
	C26.099243,355.637939 25.844408,353.243683 26.111126,350.908997 
	C26.253012,349.666992 27.799749,348.538666 27.824814,347.340485 
	C27.868946,345.230835 27.391411,343.062531 26.816927,341.006958 
	C26.510578,339.910797 25.544298,338.999054 24.875870,338.004089 
	C23.937300,338.962616 22.285280,339.844818 22.173227,340.891815 
	C21.290400,349.140747 22.398794,357.108490 26.992149,364.209320 
	C27.714046,365.325287 29.643223,365.660309 31.014185,366.356415 
	C31.099152,366.067474 31.184118,365.778534 31.269085,365.489563 
	C29.673712,363.229675 28.078341,360.969788 26.137207,358.007446 
M475.220306,340.004730 
	C476.365204,343.683441 470.468872,348.435913 476.943512,351.410034 
	C477.239960,351.546204 477.047424,353.366699 476.677124,354.228455 
	C474.976044,358.187408 473.130646,362.084381 470.902954,366.952148 
	C472.524597,366.023499 474.031677,365.675842 474.606323,364.749664 
	C479.138550,357.444855 480.749115,349.377686 479.811493,340.908356 
	C479.589264,338.900940 478.145996,336.635986 475.220306,340.004730 
M288.276154,300.089294 
	C286.898499,297.370758 285.520844,294.652222 283.700653,291.060486 
	C282.965698,295.947906 282.435547,299.473419 281.788391,303.777069 
	C284.252441,302.688660 286.435486,301.724335 288.276154,300.089294 
z"/>
<path fill="#FEFEFE" opacity="1.000000" stroke="none" 
	d="
M296.180115,467.225403 
	C296.059113,464.781311 296.705566,462.515350 296.683990,460.255798 
	C296.499329,440.937195 296.295258,421.617371 295.843811,402.303802 
	C295.745758,398.108521 297.405396,395.619568 300.636627,393.236450 
	C306.920654,388.601807 313.103790,383.780426 318.938660,378.597290 
	C330.747620,368.107422 338.596283,355.265625 340.481506,339.052734 
	C341.985992,339.209290 343.111633,339.266388 344.213867,339.457855 
	C345.336426,339.652802 346.436005,339.980011 346.809174,340.070557 
	C346.524261,354.988800 345.703369,369.587982 346.130432,384.150574 
	C346.505066,396.925293 350.072449,409.059967 357.711060,419.675140 
	C365.706390,430.786011 376.078278,433.546478 388.222717,427.448456 
	C390.875000,426.116669 392.845001,425.800568 395.418365,427.576141 
	C402.497162,432.460388 409.458679,431.688690 416.098694,426.491730 
	C417.408813,425.466278 418.768341,424.493713 420.000885,423.381348 
	C422.989685,420.684021 425.639435,418.663116 430.297058,420.898132 
	C434.423676,422.878326 438.703217,420.880463 442.314331,418.053986 
	C450.565094,411.595978 455.704315,402.895752 459.760498,393.515381 
	C463.048157,385.912292 465.893982,378.118164 469.134308,369.905457 
	C476.298737,371.923950 478.724640,366.923096 480.729370,361.504395 
	C481.706085,358.864410 482.412018,356.124207 483.586670,353.318665 
	C483.941376,379.018097 484.033661,404.828613 483.932404,430.638367 
	C483.848907,451.921448 468.156250,467.490997 447.000977,467.485382 
	C396.879944,467.472137 346.758911,467.434357 296.180115,467.225403 
z"/>
<path fill="#FEFEFE" opacity="1.000000" stroke="none" 
	d="
M18.531452,354.330872 
	C20.441193,358.181091 21.619293,362.382019 23.625885,366.140656 
	C24.560595,367.891479 27.128544,369.882660 28.909258,369.839264 
	C32.679970,369.747406 33.536224,371.764984 34.550613,374.562866 
	C39.140404,387.222382 43.708473,399.922729 52.449364,410.507111 
	C54.349934,412.808594 56.439308,414.997314 58.680565,416.966095 
	C65.175323,422.671356 68.473434,423.000427 76.401474,419.011078 
	C79.424957,421.475555 82.312042,424.255341 85.602318,426.423187 
	C92.761299,431.140045 100.156265,432.793610 107.874138,427.265167 
	C108.872528,426.550018 110.944633,426.597229 112.203293,427.093292 
	C129.205551,433.794037 139.977081,429.826202 148.290924,413.446045 
	C155.606705,399.032288 156.570480,383.419464 156.222443,367.693085 
	C156.023849,358.719513 155.055252,349.763000 154.384232,340.090515 
	C160.410126,339.069214 166.849594,337.977814 173.083710,336.921234 
	C174.348145,346.550201 174.741684,356.109009 177.044312,365.183350 
	C179.220688,373.760193 183.483551,381.797363 186.656830,390.137268 
	C187.693298,392.861298 188.800293,395.783081 188.835770,398.627380 
	C189.091431,419.121704 189.071121,439.619415 189.167252,460.115936 
	C189.176575,462.105438 189.382141,464.094025 189.539062,466.553131 
	C187.942154,467.178711 186.302872,467.469116 184.663437,467.470062 
	C141.189484,467.494720 97.715515,467.502441 54.241566,467.483704 
	C34.381828,467.475128 18.355509,452.214661 18.143688,432.448181 
	C17.865284,406.468597 18.115889,380.483368 18.531452,354.330872 
z"/>
<path fill="#FDFDFD" opacity="1.000000" stroke="none" 
	d="
M310.034515,338.967834 
	C305.716553,333.069427 305.320496,327.113037 308.819183,320.503632 
	C310.404205,317.509338 311.708466,315.563721 315.388306,315.934509 
	C316.838623,316.080658 318.379883,315.324158 320.900238,314.743622 
	C319.005707,314.136719 318.198395,313.878082 317.314423,313.594910 
	C319.619202,312.436890 321.746765,311.367950 323.874329,310.299011 
	C314.643219,311.560699 307.114960,308.378723 300.176910,303.180664 
	C293.281311,298.014435 288.586487,291.209686 286.824829,282.832092 
	C286.078217,279.281433 286.571716,275.290466 287.307861,271.663239 
	C287.918518,268.654083 290.284210,266.972382 293.831726,268.141357 
	C293.613037,268.667694 293.464478,269.125183 293.242920,269.544098 
	C287.228027,280.918213 291.507782,289.589417 304.312500,291.923523 
	C308.164398,292.625610 310.798737,291.108215 312.047302,287.392548 
	C312.619965,285.688263 312.996155,283.917938 313.659943,281.434998 
	C316.117279,282.672058 318.543274,283.608826 320.651520,285.020233 
	C323.959259,287.234711 327.588318,289.318726 330.089844,292.292114 
	C332.722351,295.421204 335.882782,299.542664 335.856171,303.209015 
	C335.768402,315.297638 335.191437,327.517883 333.207031,339.421661 
	C330.967865,352.854065 322.274445,362.580292 311.184998,370.128418 
	C296.016846,380.452820 279.908875,388.076538 260.999634,388.038177 
	C253.641220,388.023254 247.374069,385.788513 241.763016,380.595886 
	C242.594086,383.504730 243.425171,386.413605 244.234619,389.246765 
	C239.239532,388.929779 234.388107,388.862305 229.600494,388.274750 
	C212.658066,386.195526 201.722305,376.140808 194.753876,361.233093 
	C188.595718,348.058777 188.712173,347.991241 202.336563,342.847168 
	C207.586029,340.865143 212.832199,338.866486 218.142105,337.058136 
	C219.394653,336.631561 221.639709,336.345276 222.173538,337.006836 
	C228.234024,344.517761 236.504837,344.533112 245.012909,343.859467 
	C243.018585,349.201843 241.118515,354.291718 239.218430,359.381622 
	C239.463409,359.442841 239.708374,359.504059 239.953354,359.565277 
	C242.864365,355.454254 245.641449,351.236145 248.781326,347.308014 
	C249.558319,346.335968 251.910202,345.496429 252.864685,345.965729 
	C263.192017,351.043243 270.999664,346.915680 276.328156,338.466919 
	C280.361298,332.071960 285.874420,333.069946 291.453888,332.870178 
	C292.440704,332.834808 293.473541,334.083984 294.563416,334.790771 
	C295.099396,333.386169 295.674652,331.878662 296.544830,329.598358 
	C297.549316,332.830414 298.345459,335.392120 299.141632,337.953827 
	C299.452881,337.873871 299.764160,337.793884 300.075409,337.713928 
	C299.818909,334.815460 299.562408,331.917023 299.296936,328.917358 
	C302.614899,332.473907 305.760223,335.845428 309.422607,339.515747 
	C310.196716,339.776306 310.453705,339.737976 310.710693,339.699677 
	C310.485291,339.455719 310.259918,339.211792 310.034515,338.967834 
z"/>
<path fill="#F8F8F8" opacity="1.000000" stroke="none" 
	d="
M409.670227,346.579620 
	C414.241333,326.169830 417.291840,305.956726 415.862762,285.417786 
	C415.292847,277.227112 413.883850,268.882782 411.368256,261.088837 
	C407.524261,249.179092 402.886261,246.930588 390.979797,248.819687 
	C399.662994,238.349594 412.309875,236.175140 420.796265,243.906128 
	C422.965668,245.882385 424.922455,248.349899 426.212158,250.968399 
	C427.809601,254.211578 429.638397,255.653137 433.411438,255.079285 
	C440.725342,253.966873 445.425751,257.985504 448.556366,264.014008 
	C450.452606,267.665588 451.772827,271.616272 453.448639,275.666504 
	C453.621704,275.715485 454.072998,275.943665 454.531006,275.958038 
	C465.475708,276.302124 468.311768,278.747131 471.021393,289.256744 
	C475.313385,305.903625 474.083466,322.671906 471.744446,339.307831 
	C468.923187,359.373474 463.272278,378.762634 453.847351,396.793793 
	C450.885620,402.459991 446.929169,407.787720 442.603668,412.516388 
	C436.379730,419.320526 432.371490,419.272095 425.062378,413.760712 
	C421.235016,416.860870 417.482330,420.082123 413.541473,423.053772 
	C406.051819,428.701477 401.509216,428.424866 394.651337,422.170654 
	C394.042847,421.615723 393.412048,421.085297 392.568207,420.348419 
	C385.536194,424.555420 378.065796,427.909119 369.733063,425.239807 
	C366.938416,424.344574 364.746155,421.568695 362.583313,419.152618 
	C378.614685,417.172394 385.499329,405.418518 392.080872,393.684570 
	C400.288025,379.052399 405.597107,363.247620 409.670227,346.579620 
M450.155304,291.425720 
	C450.276367,291.303650 450.397430,291.181580 450.518494,291.059479 
	C450.301605,291.112366 450.084747,291.165253 450.368622,290.432251 
	C448.175568,281.961578 446.609131,273.258606 443.583740,265.096466 
	C441.316589,258.979980 435.721191,258.120056 431.412109,260.880524 
	C432.982422,275.022308 435.929230,288.548706 435.596222,301.993866 
	C435.216003,317.345673 432.526611,332.736969 429.748627,347.911194 
	C424.980652,373.955261 416.329224,398.364044 396.212158,417.088043 
	C395.868195,417.408173 395.728119,417.947357 395.498901,418.373230 
	C400.556854,424.167633 404.792389,424.745026 411.567413,420.320648 
	C423.463501,412.552124 429.179962,400.162048 436.132172,388.148956 
	C423.048370,388.213104 422.585571,387.598938 426.387939,375.842010 
	C434.726135,350.060425 439.842651,323.737915 439.911499,296.541565 
	C439.930939,288.867279 443.115753,287.192566 450.155304,291.425720 
M469.519165,293.636841 
	C469.025574,291.708344 468.681488,289.726135 468.011963,287.860809 
	C465.404816,280.597260 460.557800,278.110596 453.035767,280.290771 
	C459.605133,326.849945 451.742950,370.552460 425.945587,410.548279 
	C428.758331,413.144989 431.393982,416.666718 435.435181,414.106476 
	C443.905731,408.740082 449.243683,400.743561 453.057648,392.275726 
	C450.020691,391.676422 446.615540,391.964874 445.177917,390.421082 
	C443.998138,389.154236 444.536896,385.472992 445.375092,383.264740 
	C455.596832,356.334656 460.725922,328.611969 459.219849,299.737610 
	C459.111023,297.651611 459.871033,294.117035 461.079102,293.695038 
	C462.883484,293.064667 465.428131,294.686859 467.697601,295.160339 
	C468.265015,295.278717 468.984253,294.669403 469.519165,293.636841 
M387.163910,407.652924 
	C381.571716,412.415527 375.979492,417.178131 370.517883,421.829529 
	C374.852539,424.650299 376.428314,424.759308 382.428772,422.263275 
	C391.753540,418.384521 397.762268,410.703735 403.535400,403.042175 
	C408.076874,397.015106 411.654449,390.261719 415.660217,383.830963 
	C415.347687,383.510468 415.035156,383.189941 414.722626,382.869446 
	C410.010864,385.376862 406.316956,384.118713 403.667389,380.267487 
	C398.289062,389.265747 392.956390,398.187592 387.163910,407.652924 
M405.194214,246.162491 
	C408.471252,250.844162 412.945343,255.109222 414.752777,260.302368 
	C417.672882,268.692657 418.838623,277.693573 420.673889,286.109222 
	C423.821777,286.109222 427.405670,286.109222 431.268524,286.109222 
	C430.222961,273.757080 428.974609,260.702301 421.735565,249.158081 
	C416.958191,241.539520 408.383118,239.689758 400.405151,244.491730 
	C401.829193,244.988342 403.167480,245.455048 405.194214,246.162491 
z"/>
<path fill="#F8F8F8" opacity="1.000000" stroke="none" 
	d="
M107.636101,245.672623 
	C107.818764,246.625107 107.701447,247.325943 107.584129,248.026779 
	C96.792488,246.170151 93.014198,254.070984 90.393738,261.701324 
	C87.905121,268.947784 86.503876,276.823547 86.128082,284.496185 
	C84.343369,320.934875 91.791107,355.700226 107.194977,388.644714 
	C110.792786,396.339478 116.214096,403.279510 121.412460,410.097046 
	C125.575142,415.556335 131.185028,419.183716 138.777008,417.806152 
	C135.447540,427.934448 123.466255,428.942535 109.702377,420.566956 
	C109.404442,420.650482 109.039986,420.658417 108.821991,420.841125 
	C99.003983,429.069946 93.706078,429.014648 84.066475,420.460388 
	C81.591904,418.264404 79.259499,415.908234 76.902374,413.664276 
	C68.570236,419.311127 63.283531,418.311981 57.115471,410.278748 
	C43.474728,392.513092 36.575039,371.880646 32.105713,350.358826 
	C28.614992,333.549500 26.991489,316.485107 29.085394,299.320465 
	C29.721285,294.107788 31.057920,288.920898 32.636612,283.899200 
	C34.310581,278.574432 38.478321,275.809387 44.016434,276.108093 
	C47.519966,276.297028 49.091145,275.024231 50.040798,271.866089 
	C50.796272,269.353699 51.995049,266.954315 53.173794,264.593048 
	C57.637920,255.650391 63.010872,253.232834 72.546059,255.766647 
	C84.830933,237.255707 93.259682,234.749222 107.636101,245.672623 
M69.044334,353.387085 
	C71.705070,362.463593 74.335030,371.549286 77.038399,380.613068 
	C78.597816,385.841431 75.818352,389.189117 70.197266,388.618958 
	C68.946289,388.492096 67.732903,387.994598 65.202240,387.322449 
	C69.257942,394.118530 72.069595,400.399384 76.299019,405.505981 
	C81.199280,411.422485 86.918022,416.882324 93.081955,421.463257 
	C98.324066,425.359131 102.321121,423.804291 106.473259,418.152435 
	C104.987434,416.409332 103.574722,414.551483 101.960335,412.889587 
	C88.503502,399.037140 80.446526,382.408478 75.898445,363.764771 
	C67.811951,330.616302 60.575123,297.506439 71.697670,263.548706 
	C71.991280,262.652313 70.674568,260.538910 69.605400,260.009277 
	C65.705414,258.077362 60.736332,259.634521 58.865120,264.370361 
	C55.428329,273.068573 52.929352,282.137329 50.039440,291.051605 
	C59.730885,287.046814 62.026714,288.490295 62.077450,298.240875 
	C62.173103,316.624176 64.568718,334.715942 69.044334,353.387085 
M68.368172,398.076843 
	C48.152912,361.063385 43.232323,321.466461 48.850132,280.266785 
	C38.660954,277.472076 33.400135,282.802490 32.636948,296.294617 
	C33.223267,295.849945 33.694611,295.231262 34.277996,295.096069 
	C36.569962,294.564972 39.061523,293.526154 41.138535,294.043274 
	C42.103691,294.283569 42.679478,297.643280 42.747597,299.612610 
	C42.896976,303.931091 42.465343,308.266663 42.525261,312.591736 
	C42.867687,337.307343 47.839279,361.097198 56.803566,384.110779 
	C57.503895,385.908661 57.866829,389.040131 56.879196,389.998657 
	C55.549332,391.289307 52.764633,391.140656 50.582378,391.459503 
	C49.859901,391.565033 49.069561,391.206055 46.636429,390.736237 
	C52.615299,398.416382 57.424511,405.187866 62.866901,411.405060 
	C67.579453,416.788483 71.183601,416.205261 75.589615,410.320862 
	C73.317360,406.433075 71.053635,402.559906 68.368172,398.076843 
M102.238777,386.263641 
	C101.142296,384.104248 100.045807,381.944855 98.708611,379.311401 
	C95.367531,384.429169 91.121300,384.950134 85.888649,382.419067 
	C91.972183,394.935913 98.703522,405.845184 108.418411,414.370209 
	C112.773476,418.191864 118.244423,420.880524 123.508766,423.475037 
	C126.636635,425.016571 129.854599,423.857910 132.646881,420.727783 
	C123.055244,417.865631 116.829185,411.644928 112.108826,403.800720 
	C108.778259,398.266083 105.791405,392.524628 102.238777,386.263641 
M80.897491,286.645233 
	C81.604782,283.630310 82.433311,280.637909 82.998329,277.596558 
	C85.422424,264.548401 86.372200,250.735046 101.044334,244.295303 
	C93.129204,239.386978 84.781982,241.827209 79.503044,250.515137 
	C72.558495,261.944275 71.638924,274.795532 70.587379,286.259338 
	C73.968597,286.259338 77.090096,286.259338 80.897491,286.645233 
z"/>
<path fill="#FCFCFC" opacity="1.000000" stroke="none" 
	d="
M249.396881,403.406738 
	C256.375488,402.625244 263.076416,402.588287 269.643738,401.632660 
	C276.121216,400.690125 282.463409,398.817780 289.304352,397.252838 
	C289.407684,398.741577 289.611023,400.327454 289.613617,401.913666 
	C289.642303,419.410950 289.644897,436.908295 289.643005,454.405609 
	C289.642242,461.243164 289.081360,462.166504 282.136261,462.861450 
	C271.737610,463.902008 261.305023,464.989868 250.870850,465.180695 
	C240.424927,465.371704 229.959305,464.485931 219.131744,464.057526 
	C219.001495,462.240906 218.806137,460.807068 218.809998,459.373718 
	C218.857925,441.543335 218.920456,423.712921 219.021423,405.882782 
	C219.034866,403.507202 218.306290,400.287231 222.454208,400.896942 
	C225.844925,401.395325 230.455200,399.539948 231.033066,405.773468 
	C232.195602,418.313843 233.790146,430.814209 235.206421,443.331085 
	C235.659164,443.325867 236.111893,443.320618 236.564621,443.315399 
	C236.564621,429.895844 236.564621,416.476257 236.564621,402.792206 
	C238.989838,402.792206 240.310028,402.959961 241.572540,402.761230 
	C245.626862,402.123077 246.843552,404.135010 246.959488,407.824249 
	C247.208954,415.762146 247.682434,423.693024 249.060715,431.603668 
	C249.060715,422.318756 249.060715,413.033844 249.396881,403.406738 
z"/>
<path fill="#FAFAFA" opacity="1.000000" stroke="none" 
	d="
M251.417236,254.368362 
	C257.958618,247.383560 276.379700,248.963318 281.233063,257.025665 
	C281.803741,257.973694 281.684906,259.494080 281.523712,260.700806 
	C280.055328,271.692627 278.465668,282.668304 277.004547,293.661041 
	C276.523560,297.279633 275.992188,300.939545 276.051453,304.571320 
	C276.158325,311.115906 276.392761,317.687195 277.121033,324.185974 
	C278.172638,333.569397 273.174408,341.443909 264.939362,342.009460 
	C262.326233,342.188934 259.631195,341.176117 255.556137,340.459747 
	C257.563660,339.133545 258.202881,338.711273 259.131348,338.097931 
	C258.178772,337.295471 257.298706,336.554108 255.649094,335.164490 
	C257.998322,335.164490 259.344879,335.164490 260.832214,335.164490 
	C260.489166,330.005249 260.170471,325.212433 259.841003,320.257507 
	C258.722534,320.118256 257.624756,319.981598 256.526947,319.844971 
	C256.503204,319.489166 256.479431,319.133392 256.455688,318.777618 
	C260.476624,318.504395 264.540497,317.822449 268.489136,318.237366 
	C269.511566,318.344818 270.669769,321.834442 270.890717,323.865692 
	C271.281219,327.455811 271.000092,331.118988 271.942780,334.991760 
	C272.358551,333.897858 272.997925,332.831909 273.138947,331.703674 
	C273.364471,329.899597 273.353424,328.050293 273.278259,326.226868 
	C272.820404,315.117462 270.846771,313.599396 259.886078,315.736511 
	C258.991425,315.910980 258.033264,315.759552 256.772430,314.941803 
	C258.332306,314.122833 259.892181,313.303894 262.239441,312.071533 
	C256.569275,312.422150 255.920258,309.538849 255.995590,305.373840 
	C256.224365,292.729584 256.132568,280.078491 256.069366,267.430542 
	C256.046021,262.762390 256.971741,258.853180 262.233856,257.271057 
	C260.286133,257.271057 258.338409,257.271057 255.660431,257.271057 
	C256.956390,255.567276 257.843201,254.401398 258.730011,253.235519 
	C258.593567,252.971802 258.457123,252.708069 258.320679,252.444351 
	C256.465790,253.260284 254.610870,254.076233 252.246307,254.796997 
	C251.736649,254.701813 251.417236,254.368362 251.417236,254.368362 
z"/>
<path fill="#F9F9F9" opacity="1.000000" stroke="none" 
	d="
M219.638748,260.636475 
	C225.119797,253.768417 236.347717,252.437363 242.499924,258.387024 
	C244.293411,260.121460 245.427887,263.242218 245.617325,265.819153 
	C247.153732,286.721161 248.377823,307.645966 249.737015,328.561249 
	C249.996368,332.552246 248.998978,336.435577 245.214432,337.699860 
	C241.361755,338.986847 236.967682,339.114380 232.849594,338.920837 
	C231.179565,338.842377 229.950760,336.896515 232.464935,334.866333 
	C233.627274,333.927704 234.087769,331.352417 233.876968,329.641022 
	C233.441376,326.104767 232.342514,322.650177 231.230759,317.955566 
	C233.841522,317.633820 237.004684,316.242065 239.167450,317.173431 
	C244.696045,319.554169 244.434235,325.348969 245.235107,330.296295 
	C247.365387,325.570099 246.541534,318.729706 243.049942,315.751160 
	C238.738403,312.073212 234.364578,314.021271 229.639999,316.205261 
	C229.031128,316.055786 228.905609,315.920105 228.780075,315.784393 
	C230.196930,314.295868 231.613785,312.807343 233.136536,311.207550 
	C232.040985,311.066498 230.832108,310.910797 229.536530,310.743988 
	C229.382004,310.321259 229.142395,309.885773 229.065384,309.423187 
	C227.034485,297.227234 225.064926,285.020721 222.938110,272.841644 
	C222.712570,271.550201 221.581772,270.416809 220.735672,268.980469 
	C222.383942,268.173157 224.399231,267.186066 227.459335,265.687225 
	C224.334122,265.434784 222.276581,265.268616 220.219040,265.102417 
	C220.084869,264.740265 219.950699,264.378082 219.816528,264.015930 
	C222.103561,262.927551 224.390594,261.839203 226.677628,260.750824 
	C226.604385,260.461548 226.531143,260.172272 226.457901,259.882996 
	C224.630142,260.304230 222.802368,260.725494 220.449615,261.035492 
	C219.924637,260.924255 219.638748,260.636475 219.638748,260.636475 
z"/>
<path fill="#F6F6F6" opacity="1.000000" stroke="none" 
	d="
M199.359161,326.263611 
	C203.277603,325.840149 206.743378,325.338837 210.224365,325.187805 
	C211.810165,325.119019 213.426010,325.742310 215.028229,326.051666 
	C214.957428,326.603973 214.886612,327.156281 214.815811,327.708618 
	C206.149628,328.739624 197.433441,329.463684 188.827606,330.865234 
	C170.691864,333.818787 152.585419,336.976959 134.533569,340.402344 
	C130.355606,341.195129 128.188721,340.063812 126.879173,336.334503 
	C126.496788,335.245544 125.927139,334.220062 125.574638,333.123291 
	C121.960976,321.879700 123.387764,318.942841 134.767761,316.873199 
	C153.342743,313.494995 171.993729,310.529724 190.636169,307.536835 
	C192.074310,307.305969 194.025589,307.806885 195.171936,308.697113 
	C198.292480,311.120331 201.109070,313.934967 203.798996,316.370758 
	C178.330322,320.728912 152.937119,325.074158 127.297569,329.461578 
	C127.520180,330.268280 127.774849,331.321991 128.101776,332.352753 
	C129.380524,336.384491 131.017166,338.311859 136.281631,337.280975 
	C157.076202,333.209167 178.022614,329.912811 199.359161,326.263611 
z"/>
<path fill="#F5F5F5" opacity="1.000000" stroke="none" 
	d="
M343.636841,323.392761 
	C342.811646,319.606079 342.298462,316.097992 341.664001,311.760620 
	C353.179352,314.105011 363.661530,316.098175 374.044220,318.518158 
	C375.456177,318.847260 377.493591,321.462891 377.318451,322.760223 
	C376.605896,328.038757 375.337708,333.274200 373.803131,338.384033 
	C373.479980,339.460022 371.006622,340.786102 369.795319,340.557739 
	C360.173584,338.743958 350.617401,336.582458 341.041077,334.527740 
	C341.064392,334.113495 341.087708,333.699280 341.111023,333.285034 
	C343.040924,333.285034 345.023376,332.997253 346.890930,333.338470 
	C352.736603,334.406464 358.517487,335.829468 364.363464,336.895538 
	C371.836639,338.258331 373.124969,337.212341 374.263428,329.933716 
	C364.141998,327.842834 354.045441,325.757080 343.636841,323.392761 
z"/>
<path fill="#F8F8F8" opacity="1.000000" stroke="none" 
	d="
M201.078644,282.910095 
	C199.134430,279.390045 196.939407,276.272583 199.745590,272.355408 
	C198.699539,272.157410 197.814636,271.989899 196.503128,271.741638 
	C197.785156,270.602051 198.810364,269.690735 199.835571,268.779419 
	C199.588867,268.322479 199.342178,267.865570 199.095474,267.408630 
	C195.889053,269.208405 192.682648,271.008179 189.476227,272.807983 
	C189.244278,272.537659 189.012329,272.267365 188.780380,271.997040 
	C191.647110,269.299316 194.180374,266.070282 197.451645,264.017090 
	C203.805359,260.029205 208.619476,261.711365 210.969009,268.843140 
	C213.125580,275.389221 214.415314,282.225159 215.993866,288.955200 
	C216.575302,291.434204 216.890488,293.975708 217.215424,295.845795 
	C214.591324,294.861511 212.067627,294.210480 209.853058,292.995789 
	C207.890442,291.919281 206.051163,290.411407 204.564728,288.733154 
	C203.166214,287.154205 202.299957,285.103851 201.078644,282.910095 
z"/>
<path fill="#F7F7F7" opacity="1.000000" stroke="none" 
	d="
M297.961182,266.928223 
	C294.862579,266.229858 291.763977,265.531494 287.830444,264.644958 
	C288.568390,262.871918 289.550690,260.511780 290.545135,258.122467 
	C290.141052,258.024780 289.379852,257.840790 288.455627,257.617371 
	C292.296844,253.945068 296.653778,253.825027 301.396362,254.963409 
	C311.606567,257.414185 319.271393,268.055359 317.850983,280.489380 
	C316.408112,278.562225 314.740875,276.759583 313.583496,274.674011 
	C312.344177,272.440918 311.585144,269.941345 310.185089,266.496582 
	C310.185089,270.049866 310.185089,272.399719 310.185089,274.643494 
	C306.239441,271.865356 302.386230,269.152283 298.207275,266.645325 
	C297.881500,266.851440 297.961182,266.928223 297.961182,266.928223 
z"/>
<path fill="#F0F0F0" opacity="1.000000" stroke="none" 
	d="
M358.121338,349.404205 
	C357.542999,356.804749 357.007690,363.759796 356.486938,370.715973 
	C355.724823,380.896301 356.269470,390.940430 359.823883,400.632080 
	C363.225281,409.906494 368.889771,411.168976 375.544922,403.833923 
	C379.159180,399.850525 382.124084,395.277985 385.777313,391.288940 
	C382.506042,399.447968 378.453918,407.138519 369.759674,410.701202 
	C365.307831,412.525421 361.185059,410.429474 359.303467,406.308899 
	C356.862335,400.962952 354.755249,395.287231 353.669250,389.533630 
	C350.670715,373.647278 352.763550,357.800873 354.843536,341.982697 
	C359.397461,342.476776 359.397461,342.476776 358.121338,349.404205 
z"/>
<path fill="#EDEDED" opacity="1.000000" stroke="none" 
	d="
M149.606125,368.291748 
	C148.440872,378.906403 147.796173,389.161469 145.820007,399.153168 
	C144.810852,404.255432 142.389587,409.963501 135.989029,411.037476 
	C129.859100,412.066010 126.315453,407.663971 122.930984,403.516663 
	C120.841515,400.956238 118.965836,398.221375 117.636169,394.766388 
	C118.701614,395.635468 119.850266,396.421448 120.816925,397.389221 
	C123.741623,400.317230 126.363670,403.595764 129.531616,406.221344 
	C134.316574,410.187042 138.260605,409.082855 140.869095,403.178955 
	C145.617462,392.431702 146.041290,380.993256 145.470078,369.526917 
	C145.025024,360.593109 144.023834,351.686951 143.243393,342.456116 
	C144.228302,342.180939 145.404877,341.852234 147.390167,341.297546 
	C148.140106,350.399963 148.857834,359.111542 149.606125,368.291748 
z"/>
<path fill="#F0F0F0" opacity="1.000000" stroke="none" 
	d="
M139.933334,308.774536 
	C139.884399,311.836884 139.884399,311.836884 137.278961,311.740234 
	C132.393005,299.666718 128.129181,287.675934 122.674088,276.254089 
	C119.876831,270.397186 115.331657,265.207977 110.881897,260.353638 
	C106.256851,255.308060 101.653244,256.089478 98.858116,262.459290 
	C96.570938,267.671509 95.597275,273.460022 94.038635,278.992279 
	C93.845940,279.676208 93.636810,280.355499 93.435295,281.036957 
	C92.984276,280.973541 92.533249,280.910126 92.082230,280.846710 
	C92.381210,278.658264 92.481659,276.419617 93.019974,274.291718 
	C94.186653,269.679962 95.072800,264.899963 96.990753,260.597565 
	C100.130226,253.555038 105.905533,251.941803 111.900452,256.810547 
	C116.328941,260.407166 120.819031,264.781525 123.268661,269.793243 
	C129.412781,282.363586 134.414154,295.492523 139.933334,308.774536 
z"/>
<path fill="#F0F0F0" opacity="1.000000" stroke="none" 
	d="
M364.008667,302.028564 
	C368.282196,291.956116 371.830566,281.900543 376.984802,272.749512 
	C380.473480,266.555511 385.830017,261.218445 391.082275,256.274902 
	C395.248718,252.353317 399.696899,253.183929 403.143188,257.686554 
	C407.826965,263.806000 409.500793,270.901001 408.443695,278.675354 
	C406.948212,273.897919 405.690674,269.029419 403.905518,264.362793 
	C400.637054,255.818802 396.028534,254.809616 389.489105,261.345032 
	C380.846954,269.982025 376.210480,281.009827 372.053650,292.223694 
	C369.936340,297.935394 368.239044,303.803284 366.098083,309.505249 
	C365.645966,310.709351 364.086060,311.497528 363.036591,312.477356 
	C362.529663,312.095123 362.022736,311.712891 361.515839,311.330658 
	C362.333008,308.363983 363.150208,305.397278 364.008667,302.028564 
z"/>
<path fill="#F2F2F2" opacity="1.000000" stroke="none" 
	d="
M375.358521,358.571045 
	C369.080078,361.149902 366.937073,359.438904 366.518280,351.335938 
	C367.495209,352.528168 368.121735,353.319275 368.777435,354.085388 
	C369.405853,354.819672 370.064453,355.528076 370.682312,356.217194 
	C379.802460,350.633606 386.959839,317.712555 381.472290,306.838959 
	C379.967285,307.242340 378.431061,307.654114 376.894836,308.065857 
	C376.674255,307.734924 376.453674,307.403992 376.233124,307.073059 
	C377.878357,305.971954 379.631378,303.864502 381.141388,304.026215 
	C383.000366,304.225372 384.755310,306.206116 386.353607,307.641357 
	C387.018372,308.238342 387.413940,309.390839 387.505707,310.332275 
	C389.200195,327.721649 388.306213,344.492554 375.358521,358.571045 
z"/>
<path fill="#F2F2F2" opacity="1.000000" stroke="none" 
	d="
M113.689201,318.567749 
	C114.389717,314.552551 114.612946,310.846558 115.693138,307.409943 
	C117.155579,302.757233 120.750313,302.431946 123.944664,306.337952 
	C119.152351,306.233734 118.031425,307.413971 118.115700,314.069336 
	C118.257271,325.249512 120.082825,336.195374 124.266068,346.605560 
	C125.754166,350.308746 128.015442,353.701263 130.420090,358.154785 
	C132.581696,355.125549 133.931732,353.233643 135.281769,351.341736 
	C135.739807,351.630341 136.197845,351.918945 136.655899,352.207550 
	C135.010941,354.770050 133.810043,358.782135 131.588593,359.462646 
	C129.607025,360.069641 125.701118,357.610474 124.020264,355.439270 
	C115.756134,344.764404 112.929466,332.332336 113.689201,318.567749 
z"/>
<path fill="#F0F0F0" opacity="1.000000" stroke="none" 
	d="
M294.860107,321.836121 
	C291.638336,325.038330 288.328339,326.972656 283.793549,325.620880 
	C282.000458,319.061401 286.766449,312.044861 282.954437,305.456909 
	C288.731476,302.582642 290.087097,303.364258 293.290955,312.637543 
	C293.744507,310.641815 294.027130,309.398193 294.368073,307.897949 
	C294.927948,308.062225 295.743561,308.048309 296.018127,308.426849 
	C297.088654,309.902679 299.017578,311.722107 298.742859,313.012604 
	C298.110870,315.981201 296.375793,318.714966 294.860107,321.836121 
z"/>
<path fill="#F8F8F8" opacity="1.000000" stroke="none" 
	d="
M297.841400,266.813354 
	C300.558441,269.370026 303.490631,271.807251 306.014313,274.612122 
	C307.853333,276.656036 309.775543,279.012604 310.479919,281.556732 
	C310.967224,283.316772 309.937897,286.076965 308.632416,287.537811 
	C307.835968,288.429016 305.197052,287.910370 303.450043,287.627533 
	C302.386536,287.455383 301.434723,286.544525 300.451080,285.935883 
	C290.366638,279.695953 289.916107,277.027466 297.607056,266.995300 
	C297.961182,266.928223 297.881500,266.851440 297.841400,266.813354 
z"/>
<path fill="#EDEDED" opacity="1.000000" stroke="none" 
	d="
M219.939148,306.148865 
	C219.270355,312.795502 212.343155,315.908264 206.608597,311.991058 
	C203.159256,309.634888 200.586060,305.996094 197.619125,302.933685 
	C198.331085,302.216675 199.043030,301.499634 199.754990,300.782593 
	C201.473907,303.063629 202.802246,305.892609 205.020187,307.473572 
	C207.296906,309.096405 210.443069,309.499420 213.974396,310.695648 
	C212.325455,305.341187 210.970078,300.939972 209.421295,295.910706 
	C216.316391,295.927979 213.891861,302.231750 216.690735,304.119781 
	C216.864090,303.709869 217.249313,302.798920 218.047470,300.911530 
	C218.908844,303.161194 219.402969,304.451721 219.939148,306.148865 
z"/>
<path fill="#EDEDED" opacity="1.000000" stroke="none" 
	d="
M26.310089,358.358643 
	C28.078341,360.969788 29.673712,363.229675 31.269085,365.489563 
	C31.184118,365.778534 31.099152,366.067474 31.014185,366.356415 
	C29.643223,365.660309 27.714046,365.325287 26.992149,364.209320 
	C22.398794,357.108490 21.290400,349.140747 22.173227,340.891815 
	C22.285280,339.844818 23.937300,338.962616 24.875870,338.004089 
	C25.544298,338.999054 26.510578,339.910797 26.816927,341.006958 
	C27.391411,343.062531 27.868946,345.230835 27.824814,347.340485 
	C27.799749,348.538666 26.253012,349.666992 26.111126,350.908997 
	C25.844408,353.243683 26.099243,355.637939 26.310089,358.358643 
z"/>
<path fill="#EDEDED" opacity="1.000000" stroke="none" 
	d="
M475.349121,339.610840 
	C478.145996,336.635986 479.589264,338.900940 479.811493,340.908356 
	C480.749115,349.377686 479.138550,357.444855 474.606323,364.749664 
	C474.031677,365.675842 472.524597,366.023499 470.902954,366.952148 
	C473.130646,362.084381 474.976044,358.187408 476.677124,354.228455 
	C477.047424,353.366699 477.239960,351.546204 476.943512,351.410034 
	C470.468872,348.435913 476.365204,343.683441 475.349121,339.610840 
z"/>
<path fill="#EDEDED" opacity="1.000000" stroke="none" 
	d="
M288.447327,300.424652 
	C286.435486,301.724335 284.252441,302.688660 281.788391,303.777069 
	C282.435547,299.473419 282.965698,295.947906 283.700653,291.060486 
	C285.520844,294.652222 286.898499,297.370758 288.447327,300.424652 
z"/>
<path fill="#FAFAFA" opacity="1.000000" stroke="none" 
	d="
M251.889709,254.874664 
	C251.476837,255.268433 250.910934,255.489349 250.345001,255.710236 
	C250.544922,255.384964 250.744858,255.059692 251.181000,254.551392 
	C251.417236,254.368362 251.736649,254.701813 251.889709,254.874664 
z"/>
<path fill="#F9F9F9" opacity="1.000000" stroke="none" 
	d="
M229.325211,316.411652 
	C229.081711,316.435669 228.669632,316.239502 228.518829,315.913879 
	C228.905609,315.920105 229.031128,316.055786 229.325211,316.411652 
z"/>
<path fill="#F9F9F9" opacity="1.000000" stroke="none" 
	d="
M220.067688,261.068054 
	C219.908661,261.372131 219.606552,261.532410 219.304443,261.692657 
	C219.276245,261.450623 219.248016,261.208557 219.429276,260.801514 
	C219.638748,260.636475 219.924637,260.924255 220.067688,261.068054 
z"/>
<path fill="#050505" opacity="1.000000" stroke="none" 
	d="
M309.914917,339.079102 
	C310.259918,339.211792 310.485291,339.455719 310.710693,339.699677 
	C310.453705,339.737976 310.196716,339.776306 309.748657,339.614532 
	C309.557617,339.414459 309.795349,339.190399 309.914917,339.079102 
z"/>
<path fill="#080808" opacity="1.000000" stroke="none" 
	d="
M449.940552,291.084045 
	C443.115753,287.192566 439.930939,288.867279 439.911499,296.541565 
	C439.842651,323.737915 434.726135,350.060425 426.387939,375.842010 
	C422.585571,387.598938 423.048370,388.213104 436.132172,388.148956 
	C429.179962,400.162048 423.463501,412.552124 411.567413,420.320648 
	C404.792389,424.745026 400.556854,424.167633 395.498901,418.373230 
	C395.728119,417.947357 395.868195,417.408173 396.212158,417.088043 
	C416.329224,398.364044 424.980652,373.955261 429.748627,347.911194 
	C432.526611,332.736969 435.216003,317.345673 435.596222,301.993866 
	C435.929230,288.548706 432.982422,275.022308 431.412109,260.880524 
	C435.721191,258.120056 441.316589,258.979980 443.583740,265.096466 
	C446.609131,273.258606 448.175568,281.961578 450.134399,290.790588 
	C449.900177,291.148926 449.940552,291.084045 449.940552,291.084045 
z"/>
<path fill="#090909" opacity="1.000000" stroke="none" 
	d="
M469.576447,294.015686 
	C468.984253,294.669403 468.265015,295.278717 467.697601,295.160339 
	C465.428131,294.686859 462.883484,293.064667 461.079102,293.695038 
	C459.871033,294.117035 459.111023,297.651611 459.219849,299.737610 
	C460.725922,328.611969 455.596832,356.334656 445.375092,383.264740 
	C444.536896,385.472992 443.998138,389.154236 445.177917,390.421082 
	C446.615540,391.964874 450.020691,391.676422 453.057648,392.275726 
	C449.243683,400.743561 443.905731,408.740082 435.435181,414.106476 
	C431.393982,416.666718 428.758331,413.144989 425.945587,410.548279 
	C451.742950,370.552460 459.605133,326.849945 453.035767,280.290771 
	C460.557800,278.110596 465.404816,280.597260 468.011963,287.860809 
	C468.681488,289.726135 469.025574,291.708344 469.576447,294.015686 
z"/>
<path fill="#070707" opacity="1.000000" stroke="none" 
	d="
M387.393799,407.381165 
	C392.956390,398.187592 398.289062,389.265747 403.667389,380.267487 
	C406.316956,384.118713 410.010864,385.376862 414.722626,382.869446 
	C415.035156,383.189941 415.347687,383.510468 415.660217,383.830963 
	C411.654449,390.261719 408.076874,397.015106 403.535400,403.042175 
	C397.762268,410.703735 391.753540,418.384521 382.428772,422.263275 
	C376.428314,424.759308 374.852539,424.650299 370.517883,421.829529 
	C375.979492,417.178131 381.571716,412.415527 387.393799,407.381165 
z"/>
<path fill="#070707" opacity="1.000000" stroke="none" 
	d="
M404.849976,246.042114 
	C403.167480,245.455048 401.829193,244.988342 400.405151,244.491730 
	C408.383118,239.689758 416.958191,241.539520 421.735565,249.158081 
	C428.974609,260.702301 430.222961,273.757080 431.268524,286.109222 
	C427.405670,286.109222 423.821777,286.109222 420.673889,286.109222 
	C418.838623,277.693573 417.672882,268.692657 414.752777,260.302368 
	C412.945343,255.109222 408.471252,250.844162 404.849976,246.042114 
z"/>
<path fill="#080808" opacity="1.000000" stroke="none" 
	d="
M449.884033,291.183533 
	C450.084747,291.165253 450.301605,291.112366 450.518494,291.059479 
	C450.397430,291.181580 450.276367,291.303650 450.047913,291.254883 
	C449.940552,291.084045 449.900177,291.148926 449.884033,291.183533 
z"/>
<path fill="#080808" opacity="1.000000" stroke="none" 
	d="
M68.984787,352.974182 
	C64.568718,334.715942 62.173103,316.624176 62.077450,298.240875 
	C62.026714,288.490295 59.730885,287.046814 50.039440,291.051605 
	C52.929352,282.137329 55.428329,273.068573 58.865120,264.370361 
	C60.736332,259.634521 65.705414,258.077362 69.605400,260.009277 
	C70.674568,260.538910 71.991280,262.652313 71.697670,263.548706 
	C60.575123,297.506439 67.811951,330.616302 75.898445,363.764771 
	C80.446526,382.408478 88.503502,399.037140 101.960335,412.889587 
	C103.574722,414.551483 104.987434,416.409332 106.473259,418.152435 
	C102.321121,423.804291 98.324066,425.359131 93.081955,421.463257 
	C86.918022,416.882324 81.199280,411.422485 76.299019,405.505981 
	C72.069595,400.399384 69.257942,394.118530 65.202240,387.322449 
	C67.732903,387.994598 68.946289,388.492096 70.197266,388.618958 
	C75.818352,389.189117 78.597816,385.841431 77.038399,380.613068 
	C74.335030,371.549286 71.705070,362.463593 68.984787,352.974182 
z"/>
<path fill="#0B0B0B" opacity="1.000000" stroke="none" 
	d="
M68.579041,398.381775 
	C71.053635,402.559906 73.317360,406.433075 75.589615,410.320862 
	C71.183601,416.205261 67.579453,416.788483 62.866901,411.405060 
	C57.424511,405.187866 52.615299,398.416382 46.636429,390.736237 
	C49.069561,391.206055 49.859901,391.565033 50.582378,391.459503 
	C52.764633,391.140656 55.549332,391.289307 56.879196,389.998657 
	C57.866829,389.040131 57.503895,385.908661 56.803566,384.110779 
	C47.839279,361.097198 42.867687,337.307343 42.525261,312.591736 
	C42.465343,308.266663 42.896976,303.931091 42.747597,299.612610 
	C42.679478,297.643280 42.103691,294.283569 41.138535,294.043274 
	C39.061523,293.526154 36.569962,294.564972 34.277996,295.096069 
	C33.694611,295.231262 33.223267,295.849945 32.636948,296.294617 
	C33.400135,282.802490 38.660954,277.472076 48.850132,280.266785 
	C43.232323,321.466461 48.152912,361.063385 68.579041,398.381775 
z"/>
<path fill="#070707" opacity="1.000000" stroke="none" 
	d="
M102.444931,386.569580 
	C105.791405,392.524628 108.778259,398.266083 112.108826,403.800720 
	C116.829185,411.644928 123.055244,417.865631 132.646881,420.727783 
	C129.854599,423.857910 126.636635,425.016571 123.508766,423.475037 
	C118.244423,420.880524 112.773476,418.191864 108.418411,414.370209 
	C98.703522,405.845184 91.972183,394.935913 85.888649,382.419067 
	C91.121300,384.950134 95.367531,384.429169 98.708611,379.311401 
	C100.045807,381.944855 101.142296,384.104248 102.444931,386.569580 
z"/>
<path fill="#070707" opacity="1.000000" stroke="none" 
	d="
M80.554535,286.452271 
	C77.090096,286.259338 73.968597,286.259338 70.587379,286.259338 
	C71.638924,274.795532 72.558495,261.944275 79.503044,250.515137 
	C84.781982,241.827209 93.129204,239.386978 101.044334,244.295303 
	C86.372200,250.735046 85.422424,264.548401 82.998329,277.596558 
	C82.433311,280.637909 81.604782,283.630310 80.554535,286.452271 
z"/>
</svg>